<?xml version="1.0" standalone="no"?>
<!DOCTYPE svg PUBLIC "-//W3C//DTD SVG 20010904//EN"
 "http://www.w3.org/TR/2001/REC-SVG-20010904/DTD/svg10.dtd">
<svg version="1.0" xmlns="http://www.w3.org/2000/svg"
 width="1000.000000pt" height="1000.000000pt" viewBox="0 0 1000.000000 1000.000000"
 preserveAspectRatio="xMidYMid meet">
<metadata>
Created by potrace 1.14, written by Peter Selinger 2001-2017
</metadata>
<g transform="translate(0.000000,1000.000000) scale(0.100000,-0.100000)"
fill="#000000" stroke="none">
<path d="M4243 7685 c-50 -14 -153 -60 -163 -74 -7 -10 -102 -67 -180 -109
-36 -20 -96 -55 -134 -80 -38 -24 -76 -47 -85 -50 -22 -10 -155 -85 -161 -91
-6 -7 -29 -21 -110 -68 -69 -40 -145 -111 -188 -176 -26 -39 -27 -46 -26 -171
0 -72 6 -154 13 -183 12 -51 12 -53 -17 -95 -38 -56 -153 -294 -185 -383 -25
-69 -65 -216 -73 -265 -37 -225 -46 -339 -39 -495 5 -129 30 -312 56 -410 6
-22 15 -60 21 -85 5 -25 14 -49 19 -54 5 -6 9 -19 9 -31 0 -19 -5 -21 -76 -20
-73 0 -77 -1 -105 -33 -16 -18 -29 -42 -29 -53 0 -18 -6 -15 -47 21 -90 79
-231 134 -382 148 -116 11 -327 -3 -359 -24 -14 -9 -21 -11 -17 -3 6 9 2 11
-16 6 -13 -4 -56 -14 -96 -23 -105 -25 -125 -45 -132 -130 -3 -38 -6 -318 -6
-621 l0 -553 28 -27 27 -28 192 -3 c229 -4 267 0 302 35 26 26 26 27 26 189
l0 163 38 6 c168 29 277 68 363 130 48 34 49 34 49 12 0 -48 43 -195 80 -272
88 -185 248 -285 455 -285 191 0 345 87 461 261 62 94 71 87 75 -61 4 -115 5
-121 32 -147 l27 -28 192 -3 c219 -4 266 1 297 29 20 18 26 19 69 9 139 -34
222 -40 548 -40 182 0 345 3 363 6 17 4 42 18 56 32 25 24 25 27 25 188 l0
163 38 6 c167 29 277 68 363 130 l48 34 3 -234 3 -235 27 -27 c24 -23 35 -26
85 -25 132 2 337 15 362 22 20 6 32 2 53 -18 l27 -25 218 3 c120 1 301 5 402
9 l184 7 27 31 28 31 96 -34 c134 -47 251 -67 334 -58 279 29 462 163 521 381
46 173 13 350 -84 448 -20 19 -32 35 -28 35 21 0 35 53 49 188 24 236 23 250
-13 282 -56 50 -285 97 -426 86 -108 -7 -226 -41 -301 -87 -36 -21 -67 -39
-69 -39 -3 0 -7 13 -10 28 -3 16 -19 38 -34 48 -25 17 -52 19 -264 22 l-236 3
24 92 c22 82 32 134 50 257 15 109 15 362 -2 507 -10 84 -22 156 -26 159 -5 3
-9 13 -9 22 0 31 -34 172 -42 172 -4 0 -8 9 -8 20 0 18 -17 69 -40 125 -29 67
-94 201 -100 205 -4 3 -11 15 -15 28 -8 29 -141 226 -192 287 -20 24 -40 42
-45 39 -5 -3 -8 -2 -6 3 9 35 -46 133 -74 133 -5 0 -14 5 -21 10 -7 6 -33 25
-58 43 -106 73 -258 191 -309 240 -30 30 -80 74 -110 99 -30 25 -80 69 -110
97 -64 59 -135 100 -205 117 -27 7 -77 19 -110 28 -33 8 -107 20 -165 26 -58
5 -156 15 -217 22 -105 11 -121 10 -218 -11 -119 -25 -191 -20 -280 19 -33 15
-171 40 -217 39 -24 0 -67 -7 -95 -14z m247 -70 c17 -16 21 -28 18 -60 -3 -22
-8 -49 -13 -60 -7 -17 -3 -16 21 6 53 48 78 58 184 71 161 20 546 16 562 -6 3
-5 55 -10 115 -11 144 -4 159 -8 293 -89 19 -12 46 -27 60 -34 55 -28 165
-148 244 -267 88 -133 51 -129 -100 11 -64 58 -118 103 -121 100 -4 -3 3 -16
14 -29 11 -12 32 -43 46 -68 32 -55 72 -94 87 -84 6 3 9 3 8 -2 -3 -8 28 -59
49 -81 7 -7 13 -20 13 -28 0 -8 4 -14 8 -14 19 0 42 -150 42 -269 0 -107 -3
-131 -25 -189 -61 -160 -76 -170 -152 -95 -81 79 -127 153 -121 194 3 22 8 24
72 27 40 2 78 9 90 17 11 8 29 15 39 15 9 0 20 7 23 15 8 20 -51 142 -76 155
-11 6 -20 20 -20 32 0 21 9 21 53 3 24 -10 22 19 -6 74 -27 56 -59 79 -117 86
-44 6 -48 4 -104 -47 l-58 -53 3 -120 4 -120 -57 -3 -57 -3 121 -117 c170
-165 288 -303 288 -336 0 -29 -15 -33 -46 -12 -13 9 -60 16 -139 20 -66 3
-141 8 -167 11 -38 6 -54 3 -87 -16 -44 -24 -61 -58 -61 -121 0 -53 22 -93 85
-154 42 -41 61 -53 97 -58 50 -8 88 -36 88 -67 0 -29 -53 -79 -85 -79 -51 0
-165 -70 -260 -160 -33 -31 -86 -75 -117 -98 -31 -23 -59 -46 -63 -52 -4 -6
-47 -37 -97 -70 -103 -67 -161 -85 -260 -78 -54 3 -76 11 -138 47 -82 49 -220
183 -281 273 -42 62 -153 165 -172 160 -7 -2 -9 -1 -6 3 4 3 -6 20 -22 38 -35
38 -35 43 -4 132 20 55 25 90 26 160 0 99 -1 101 -85 292 -36 82 -36 83 -36
225 l-1 143 50 100 c27 55 60 123 72 150 13 28 27 52 30 55 17 13 125 230 114
230 -10 0 -203 -262 -237 -322 -21 -37 -58 -98 -82 -135 -102 -159 -115 -226
-125 -628 -6 -253 -9 -295 -25 -327 -10 -20 -30 -42 -43 -49 -21 -12 -30 -10
-71 11 -25 14 -58 35 -73 47 -14 12 -30 19 -34 15 -5 -4 -5 -2 -2 4 3 6 -24
40 -62 77 -40 39 -79 90 -97 124 -16 32 -49 94 -75 138 -36 64 -78 161 -84
195 0 3 -6 21 -13 40 -29 87 -19 192 26 274 32 58 50 71 86 62 l27 -7 -3 -122
c-2 -137 7 -179 52 -222 33 -32 68 -29 50 4 -39 74 52 317 176 466 61 73 64
79 64 130 0 36 9 74 27 117 28 63 33 72 86 131 15 18 53 66 85 107 31 41 73
90 92 109 39 37 107 71 148 72 15 0 36 4 47 9 11 6 54 9 96 7 60 -2 82 -6 99
-22z m1692 -611 c7 -6 46 -23 86 -38 128 -49 150 -113 92 -270 -48 -132 -80
-287 -90 -447 -8 -124 -13 -155 -35 -203 -18 -40 -31 -56 -45 -56 -18 0 -20 7
-21 63 -1 34 -2 67 -3 72 -1 6 -5 33 -9 60 -5 28 -15 95 -24 150 -13 81 -14
132 -7 265 10 210 8 285 -11 323 -18 37 -20 84 -2 90 18 7 54 2 69 -9z m-382
-244 c22 -22 27 -69 8 -71 -49 -5 -78 12 -78 45 0 45 37 59 70 26z m-160 -643
c16 -18 34 -51 41 -75 10 -37 10 -46 -4 -59 -20 -21 -42 -5 -50 36 -4 21 -18
36 -48 53 -52 29 -69 65 -36 78 33 14 64 3 97 -33z m330 15 c0 -10 5 -23 12
-30 15 -15 14 -161 -1 -220 -7 -26 -11 -105 -9 -205 l3 -162 -35 -50 c-75
-109 -165 -185 -219 -185 -16 0 -20 6 -18 28 1 21 6 28 18 25 20 -6 83 72 100
124 6 19 9 63 7 98 -4 63 -16 88 -79 166 -25 31 -36 107 -20 137 6 12 42 36
79 54 84 42 110 82 111 176 1 59 2 62 26 62 17 0 25 -5 25 -18z m-89 -34 c3
-29 -4 -45 -34 -75 -33 -35 -52 -41 -60 -20 -6 16 15 68 37 90 20 20 55 23 57
5z m-210 -578 c21 -12 27 -77 9 -109 -18 -35 -82 -51 -205 -51 -62 0 -125 -4
-139 -10 -30 -11 -56 -4 -56 16 0 13 169 136 211 153 33 13 156 13 180 1z
m-440 -414 c43 -12 55 -46 39 -111 -7 -31 -17 -58 -22 -61 -4 -3 -36 -9 -70
-15 -35 -5 -105 -19 -156 -31 -103 -24 -138 -48 -148 -97 l-6 -30 -42 33 c-87
71 -222 120 -369 135 -48 5 -90 11 -93 14 -12 11 31 95 65 125 34 32 39 34
101 30 54 -3 72 -8 102 -33 20 -16 43 -40 50 -53 7 -13 28 -32 48 -42 32 -16
42 -17 92 -5 31 7 100 36 154 65 89 49 195 90 219 85 6 -1 22 -5 36 -9z m829
-130 c0 -21 -28 -82 -45 -100 -9 -9 -27 -16 -39 -16 -33 0 -79 -48 -73 -77 4
-22 -2 -22 -30 0 -10 7 2 25 43 71 31 33 67 78 80 99 24 37 64 52 64 23z
m-556 -12 c29 -28 17 -34 -69 -32 -47 1 -85 4 -85 7 0 11 75 39 107 40 17 1
39 -6 47 -15z m649 -91 c-7 -2 -19 -2 -25 0 -7 3 -2 5 12 5 14 0 19 -2 13 -5z
m-336 -18 c8 -23 -2 -28 -27 -15 -18 10 -20 14 -9 21 20 13 29 11 36 -6z
m-1344 -15 c54 0 154 -28 218 -60 108 -55 183 -140 209 -240 19 -68 13 -202
-11 -266 -56 -150 -239 -255 -471 -271 l-88 -6 0 -193 0 -194 -205 0 -206 0 3
584 c2 321 6 587 9 590 25 26 498 85 507 64 2 -4 18 -8 35 -8z m3567 -10 c41
-12 78 -24 82 -28 7 -7 -20 -341 -28 -350 -1 -2 -41 6 -88 17 -140 35 -292 26
-316 -19 -21 -40 69 -69 212 -70 113 0 218 -62 262 -154 27 -57 38 -154 26
-238 -32 -222 -199 -357 -465 -375 -74 -5 -106 -2 -180 17 -123 31 -243 79
-247 99 -2 9 0 38 4 65 4 28 10 79 12 115 8 109 18 161 30 161 7 0 31 -9 55
-21 154 -74 399 -78 389 -6 -5 33 -48 48 -162 56 -83 6 -115 13 -159 35 -113
55 -167 155 -167 306 0 104 18 163 74 239 59 80 183 151 306 175 62 12 286 -3
360 -24z m-5615 6 c91 -15 207 -69 269 -126 24 -22 46 -36 50 -32 4 4 6 3 5
-3 -2 -5 10 -37 26 -70 28 -56 30 -68 30 -175 0 -132 -1 -140 -37 -201 -75
-129 -241 -211 -450 -226 l-88 -6 0 -193 0 -194 -205 0 -205 0 -2 398 c-3 416
3 766 13 776 10 10 179 45 264 54 71 8 276 7 330 -2z m3168 -9 c143 -35 263
-121 314 -226 24 -48 28 -71 31 -161 3 -89 1 -114 -18 -162 -58 -154 -237
-259 -472 -275 l-88 -6 0 -193 0 -194 -205 0 -205 0 0 553 c0 303 3 569 6 589
6 37 7 37 78 53 205 45 428 54 559 22z m1704 -99 c-4 -62 -11 -138 -15 -168
l-7 -55 -115 -6 c-63 -4 -143 -7 -177 -8 l-63 -1 0 -45 0 -45 119 0 120 0 3
-32 c2 -18 -1 -79 -6 -134 l-9 -102 -60 -6 c-33 -3 -91 -6 -128 -6 l-69 0 0
-55 0 -55 176 0 176 0 -6 -147 c-4 -82 -9 -164 -12 -184 l-5 -37 -182 -6
c-100 -3 -267 -8 -371 -11 l-189 -5 6 213 c4 116 9 352 12 522 3 171 8 347 11
392 l6 83 396 3 c219 1 397 3 397 5 0 1 -4 -49 -8 -110z m-853 15 c-14 -190
-86 -1042 -89 -1060 -5 -19 -13 -22 -112 -27 -60 -4 -143 -9 -185 -12 l-78 -5
0 570 0 571 73 1 c39 1 124 5 187 9 63 3 136 7 162 8 l46 2 -4 -57z m-2580 1
c11 -86 6 -302 -11 -421 -9 -65 -17 -132 -17 -150 -1 -17 -3 -29 -5 -27 -3 2
-15 -33 -28 -78 -66 -232 -201 -406 -358 -461 -97 -34 -246 -26 -342 18 -114
52 -200 179 -244 360 -31 125 -33 457 -5 649 l19 129 111 -7 c61 -3 153 -6
204 -6 l92 0 0 -27 c0 -16 -9 -89 -20 -162 -28 -189 -35 -348 -21 -456 34
-262 141 -234 190 50 21 121 34 342 27 488 l-6 147 204 0 203 0 7 -46z m-519
-564 c-10 -90 -25 -84 -25 11 1 78 2 83 16 64 12 -15 14 -33 9 -75z m3943 -3
c15 -16 13 -20 -16 -49 -17 -18 -33 -30 -36 -27 -2 2 -1 37 1 78 6 73 6 74 21
45 8 -16 22 -37 30 -47z m-2432 -494 c-5 -5 -42 15 -70 37 -39 31 -114 249
-89 258 33 11 113 65 108 72 -3 6 0 7 8 4 8 -3 20 3 28 12 12 15 14 -9 17
-181 1 -109 1 -200 -2 -202z"/>
<path d="M4816 7173 c-10 -3 -46 -22 -80 -42 -34 -20 -73 -42 -88 -50 -40 -21
-103 -82 -122 -118 -19 -39 -21 -122 -3 -147 11 -15 17 -16 35 -7 34 18 53 13
105 -31 27 -22 66 -47 86 -54 44 -16 143 -18 157 -4 8 8 19 7 37 -1 42 -19 59
-6 51 38 -4 21 -10 43 -14 48 -4 6 -11 29 -15 51 -4 28 -17 52 -41 75 -33 32
-37 33 -110 32 -71 -1 -75 0 -72 21 2 17 12 22 58 28 63 9 122 3 165 -17 32
-14 95 -77 95 -94 0 -5 12 -32 26 -61 21 -42 28 -49 40 -39 16 13 19 60 5 87
-5 9 -17 34 -27 54 -10 20 -23 34 -28 31 -6 -4 -8 -3 -4 2 9 9 -29 114 -51
138 -34 39 -154 74 -205 60z m-38 -346 c19 -40 9 -62 -20 -46 -40 21 -56 39
-51 60 8 31 54 21 71 -14z"/>
<path d="M5137 6563 c-6 -58 2 -74 48 -101 27 -17 38 -32 47 -67 9 -32 21 -51
43 -65 16 -11 40 -27 52 -36 23 -16 23 -16 17 17 -9 50 -41 117 -89 184 -44
62 -92 115 -105 115 -4 0 -10 -21 -13 -47z"/>
<path d="M4990 5770 c0 -5 5 -10 11 -10 5 0 7 5 4 10 -3 6 -8 10 -11 10 -2 0
-4 -4 -4 -10z"/>
<path d="M5294 5756 c-4 -9 -4 -20 0 -23 3 -4 12 -1 18 5 9 9 9 15 0 24 -9 9
-13 7 -18 -6z"/>
<path d="M5150 5660 c0 -5 5 -10 10 -10 6 0 10 5 10 10 0 6 -4 10 -10 10 -5 0
-10 -4 -10 -10z"/>
<path d="M4990 5640 c0 -5 5 -10 10 -10 6 0 10 5 10 10 0 6 -4 10 -10 10 -5 0
-10 -4 -10 -10z"/>
<path d="M4354 4488 c-13 -20 -18 -215 -6 -222 14 -8 102 13 102 25 0 5 7 9
15 9 22 0 55 60 55 100 0 38 -22 71 -57 89 -29 15 -100 14 -109 -1z"/>
<path d="M2252 4483 c-4 -10 -7 -63 -7 -118 l0 -100 34 3 c136 11 194 165 84
221 -35 18 -102 14 -111 -6z"/>
<path d="M5384 4489 c-10 -16 -18 -173 -10 -204 6 -24 10 -26 39 -20 87 19
137 68 137 135 0 38 -22 71 -57 89 -28 14 -100 14 -109 0z"/>
<path d="M0 1220 l0 -1220 5000 0 5000 0 0 1220 0 1220 -5000 0 -5000 0 0
-1220z m2259 801 c8 -5 11 -16 8 -25 -4 -9 -1 -26 5 -36 16 -25 3 -39 -44 -46
l-35 -6 -5 53 c-4 35 -2 57 6 61 15 10 48 10 65 -1z m247 -14 c3 -3 1 -8 -5
-12 -6 -3 -11 -1 -11 4 0 6 -9 11 -20 11 -13 0 -20 -7 -20 -20 0 -11 5 -20 10
-20 6 0 10 -8 9 -17 0 -11 -3 -13 -6 -5 -8 21 -23 13 -23 -13 0 -18 -5 -25
-19 -25 -17 0 -19 4 -10 32 5 18 9 45 9 59 0 25 2 26 40 19 23 -4 43 -10 46
-13z m5125 11 c1 -7 3 -20 4 -28 0 -8 5 -24 10 -34 6 -13 3 -22 -8 -31 -9 -7
-15 -14 -13 -16 2 -2 -18 -5 -45 -6 -27 -1 -49 3 -49 8 0 5 4 9 9 9 11 0 1 84
-10 88 -5 2 -9 8 -9 13 0 14 110 11 111 -3z m210 6 c31 -5 35 -9 31 -30 -5
-28 -19 -32 -25 -6 -3 9 -5 0 -6 -20 -1 -36 -15 -51 -23 -26 -3 7 -7 6 -11 -5
-5 -12 -1 -17 13 -17 10 0 22 5 25 10 11 18 23 10 21 -14 -1 -25 2 -25 -83
-11 -34 6 -40 14 -24 31 15 16 21 82 8 88 -17 7 32 7 74 0z m253 -107 c9 -15
7 -22 -12 -37 -18 -15 -21 -23 -12 -44 5 -15 6 -26 1 -26 -23 0 -41 14 -41 30
0 11 -5 22 -12 26 -8 5 -9 2 -5 -9 8 -20 -3 -21 -38 -5 -27 12 -34 28 -12 28
18 0 48 65 40 87 -5 13 1 12 37 -8 24 -13 48 -32 54 -42z m-5393 26 c31 -19
39 -50 14 -59 -9 -4 -15 -19 -15 -35 0 -16 -4 -29 -9 -29 -11 0 -21 25 -21 51
0 25 -17 24 -25 -2 -6 -17 -24 -23 -28 -9 -3 11 39 100 46 100 5 0 22 -8 38
-17z m-206 -32 c-3 -6 -14 -11 -23 -11 -13 0 -13 2 4 14 21 15 30 14 19 -3z
m-607 -9 c-24 -5 -23 -16 7 -59 22 -33 25 -53 7 -53 -4 0 -20 21 -36 46 -27
43 -30 45 -43 28 -7 -10 -13 -13 -13 -6 0 16 72 61 85 54 6 -4 2 -8 -7 -10z
m5380 -1 c3 -9 -2 -11 -17 -6 -11 3 -21 4 -21 1 0 -15 46 -76 58 -76 20 0 14
-16 -10 -27 -26 -12 -44 -12 -40 0 4 14 -39 78 -48 72 -5 -3 -7 -12 -3 -20 7
-21 -7 -19 -22 2 -12 16 -8 21 28 45 44 29 67 32 75 9z m618 -56 c62 -18 168
-68 196 -92 9 -8 22 -12 28 -8 6 3 9 2 8 -3 -2 -5 18 -29 45 -52 96 -85 181
-233 213 -368 16 -67 15 -257 -2 -325 -6 -27 -6 -27 44 -27 31 0 54 -5 62 -15
11 -13 16 -12 44 3 39 21 158 22 201 1 30 -14 30 -15 30 -99 0 -49 5 -94 13
-107 17 -30 15 -118 -3 -152 -23 -45 -70 -79 -130 -92 -47 -10 -64 -10 -112 4
-41 11 -61 13 -70 5 -9 -7 -71 -9 -181 -6 -92 2 -183 1 -202 -2 -24 -4 -41 -1
-53 9 -15 13 -23 13 -50 2 -121 -51 -330 -67 -447 -36 -30 8 -77 15 -105 15
-59 0 -70 6 -84 44 l-11 28 -35 -31 c-75 -66 -175 -62 -239 10 -19 21 -40 56
-47 78 -12 40 -22 50 -33 32 -4 -5 -29 -15 -56 -22 l-50 -13 0 -53 c0 -41 -4
-54 -19 -63 -27 -14 -154 -13 -169 2 -9 9 -12 71 -12 218 l0 207 28 13 c15 7
70 15 122 17 86 4 100 2 142 -20 62 -31 72 -21 51 53 -24 89 -22 259 6 355 22
79 88 215 103 215 4 0 8 12 8 26 0 54 34 87 184 177 80 48 159 90 175 93 17 4
53 1 82 -6 36 -9 53 -9 58 -2 15 25 162 18 267 -13z m-5350 -9 c111 -36 197
-89 284 -176 85 -85 130 -156 166 -259 46 -132 51 -258 18 -414 -6 -27 -6 -27
49 -27 36 0 59 -5 67 -15 10 -12 15 -12 36 2 32 20 141 29 187 14 53 -18 58
-28 48 -105 -6 -57 -5 -74 11 -104 10 -20 18 -48 18 -62 0 -133 -126 -210
-273 -166 -27 8 -49 10 -54 5 -5 -5 -68 -10 -139 -11 -216 -3 -285 0 -300 13
-11 9 -24 7 -62 -9 -116 -50 -282 -64 -407 -35 -38 9 -99 19 -135 22 -54 5
-65 9 -68 26 -8 41 -23 47 -51 19 -99 -101 -265 -49 -288 91 -6 40 -5 40 -43
20 -16 -8 -46 -19 -67 -23 l-38 -8 -5 -59 -5 -60 -78 -3 c-50 -2 -84 1 -93 9
-21 17 -20 391 1 412 8 8 47 21 86 27 84 14 167 2 212 -31 27 -20 29 -20 41
-3 11 14 10 26 -2 63 -11 32 -16 88 -16 181 0 122 2 142 28 215 27 79 85 192
86 167 0 -7 -13 -38 -29 -70 -40 -82 -60 -148 -70 -236 -13 -117 14 -306 44
-306 9 0 8 13 -3 53 -8 29 -15 98 -15 157 -1 120 16 198 66 299 27 55 31 74
29 126 -3 57 -2 62 30 94 18 18 94 69 168 113 134 79 135 79 190 74 148 -16
156 -16 133 -6 -43 18 -23 23 70 17 56 -4 125 -16 173 -31z m5727 -55 c3 -31
5 -33 12 -13 8 25 16 27 33 10 16 -16 15 -28 -1 -28 -7 0 -27 -16 -44 -35 -17
-19 -34 -35 -37 -35 -3 0 -6 23 -6 52 0 50 0 51 -19 34 -11 -10 -17 -25 -14
-33 5 -13 2 -13 -15 -4 -26 14 -37 31 -21 31 20 0 69 52 69 73 0 36 38 -10 43
-52z m-5369 -15 l-5 -41 24 27 c14 15 27 25 30 22 4 -4 -71 -84 -79 -84 -2 0
-2 26 2 58 l6 57 -31 -32 c-46 -49 -50 -40 -5 10 47 52 67 47 58 -17z m4210
-46 l41 -39 -60 -1 -60 -1 24 -19 c12 -11 27 -17 32 -14 12 7 11 -3 -1 -27
-12 -22 -35 -26 -27 -5 7 17 -58 70 -73 61 -16 -10 -12 7 7 27 9 11 30 18 50
18 20 0 32 4 28 10 -3 6 -16 10 -27 10 -21 0 -21 0 -2 21 11 12 20 16 22 9 2
-6 23 -29 46 -50z m-5371 2 l38 -39 -56 5 c-63 5 -72 -7 -25 -35 26 -15 40
-33 26 -33 -12 0 -85 74 -80 81 3 5 26 9 52 9 l47 1 -30 24 c-16 14 -25 25
-20 25 6 0 28 -17 48 -38z m6707 -120 c0 -4 -5 -13 -12 -20 -7 -7 -9 -12 -5
-12 3 0 -5 -11 -18 -25 -14 -13 -25 -34 -25 -47 -1 -22 -2 -22 -25 7 -25 30
-33 51 -16 40 15 -8 21 9 10 25 -8 12 -12 12 -16 2 -4 -10 -8 -10 -19 -1 -29
24 -14 34 56 37 39 2 70 -1 70 -6z m-5475 -12 c3 -5 1 -10 -4 -10 -6 0 -11 5
-11 10 0 6 2 10 4 10 3 0 8 -4 11 -10z m99 -2 c-5 -7 -20 -30 -36 -52 -22 -31
-29 -35 -34 -22 -3 9 -1 23 6 31 7 8 9 15 4 15 -4 0 1 7 12 16 19 15 18 15 -3
11 -13 -3 -26 -1 -29 4 -3 5 16 9 41 9 34 0 44 -3 39 -12z m3856 -21 c0 -18
65 -48 86 -40 9 3 15 2 13 -3 -20 -43 -34 -64 -41 -64 -5 0 -7 4 -3 10 7 11
-72 53 -85 45 -13 -8 -13 9 2 40 12 27 28 34 28 12z m-5280 -66 c0 -19 -16
-18 -61 5 -47 23 -56 33 -43 47 8 8 104 -40 104 -52z m6892 -136 l3 -50 -33
-1 c-24 0 -40 -7 -52 -24 l-18 -23 -7 22 c-5 17 -1 29 16 47 12 13 17 24 11
24 -6 0 -15 -8 -21 -17 -8 -16 -11 -15 -20 10 -15 38 -14 50 3 44 19 -8 96 13
96 26 0 7 3 8 10 1 5 -5 11 -32 12 -59z m-5368 23 c10 -40 7 -68 -10 -75 -8
-3 -20 -1 -27 6 -8 8 -17 4 -34 -16 -18 -23 -22 -25 -23 -10 0 10 8 29 17 43
16 25 16 26 -7 22 -16 -2 -26 2 -28 13 -2 11 10 18 45 26 26 6 51 11 54 12 4
0 9 -9 13 -21z m3783 -40 c-18 -98 -23 -110 -35 -92 -4 5 -26 24 -49 43 -24
18 -43 36 -43 40 0 4 28 14 63 23 34 8 64 16 66 17 2 0 1 -14 -2 -31z m-5369
-13 c-1 -2 -18 -5 -36 -8 -36 -6 -54 -16 -31 -18 8 -1 17 -1 22 0 4 0 7 -6 7
-14 0 -8 7 -15 16 -15 8 0 12 -5 9 -10 -4 -6 -25 5 -51 26 -24 20 -42 40 -38
43 3 3 27 11 52 16 38 8 48 8 50 -3 2 -7 2 -15 0 -17z m6973 -164 c14 23 17 6
9 -45 -18 -121 -131 -93 -122 30 2 20 5 21 53 12 40 -7 54 -6 60 3z m-5354
-47 c-8 -47 -23 -64 -58 -64 -33 0 -59 32 -59 72 0 28 1 28 61 28 l62 0 -6
-36z m3722 7 c5 -9 9 -28 9 -43 0 -28 -1 -28 -62 -25 l-61 2 -3 38 c-3 32 0
37 17 37 22 0 29 -16 10 -22 -7 -2 -10 -11 -7 -18 3 -10 10 -5 21 16 9 17 14
34 12 36 -3 2 9 3 25 0 17 -2 34 -12 39 -21z m-5371 7 c17 -17 15 -33 -2 -19
-11 9 -18 4 -35 -24 -11 -19 -26 -35 -34 -35 -18 0 -37 21 -37 40 1 12 3 11
11 -3 8 -14 14 -16 25 -6 8 6 14 17 14 25 0 7 8 18 18 23 22 13 26 13 40 -1z
m12 -52 c0 -8 -7 -16 -15 -20 -12 -4 -13 -2 -2 14 14 24 17 25 17 6z"/>
<path d="M2210 2001 c0 -12 6 -21 16 -21 9 0 14 7 12 17 -5 25 -28 28 -28 4z"/>
<path d="M2220 1945 c0 -17 5 -25 13 -22 6 2 12 12 12 22 0 10 -6 20 -12 23
-8 2 -13 -6 -13 -23z"/>
<path d="M7580 1994 c0 -8 5 -12 10 -9 6 4 8 11 5 16 -9 14 -15 11 -15 -7z"/>
<path d="M7580 1945 c0 -9 5 -15 11 -13 6 2 11 8 11 13 0 5 -5 11 -11 13 -6 2
-11 -4 -11 -13z"/>
<path d="M7815 1989 c-4 -6 -5 -12 -2 -15 2 -3 7 2 10 11 7 17 1 20 -8 4z"/>
<path d="M8036 1915 c-3 -9 0 -15 9 -15 8 0 15 7 15 15 0 8 -4 15 -9 15 -5 0
-11 -7 -15 -15z"/>
<path d="M2670 1921 c-7 -14 -7 -22 1 -27 14 -8 43 21 35 35 -11 17 -24 13
-36 -8z"/>
<path d="M7472 1823 c-30 -6 -118 -113 -127 -155 -4 -18 -20 -51 -35 -73 -32
-46 -43 -79 -42 -117 0 -18 -5 -28 -13 -28 -23 0 -45 42 -45 85 0 29 -3 36
-10 25 -20 -32 -11 -97 24 -164 33 -64 89 -126 112 -126 16 0 21 32 23 140 3
114 8 132 70 225 28 43 48 82 44 89 -3 6 -3 8 2 4 4 -4 14 -3 22 4 30 24 23
-5 -21 -91 -54 -105 -56 -133 -20 -221 23 -57 24 -68 14 -108 -11 -46 0 -79
24 -65 6 3 8 3 4 -2 -10 -11 68 -102 113 -132 53 -35 90 -25 180 49 41 33 89
67 107 74 38 17 43 38 7 31 -14 -2 -23 -2 -20 1 3 3 -4 15 -14 26 -29 31 -36
70 -16 90 12 11 35 16 83 16 l67 0 -67 66 c-38 36 -68 68 -68 70 0 2 9 4 20 4
17 0 20 7 20 38 0 45 24 72 63 72 29 0 47 -24 47 -62 0 -13 5 -30 11 -38 7
-11 8 -4 3 25 -7 42 -11 50 -58 109 -35 45 -27 58 17 26 l32 -23 -35 37 c-59
64 -94 76 -239 83 -107 5 -133 3 -161 -11 -45 -22 -51 -20 -44 9 6 22 3 25
-22 24 -16 -1 -39 -4 -52 -6z m239 -133 c22 -12 59 -80 59 -110 0 -25 -27 -26
-35 -1 -3 10 -14 26 -24 35 -18 17 -18 15 1 -23 11 -22 17 -45 13 -51 -9 -15
-76 -12 -109 5 -16 9 -39 16 -52 17 -12 1 -20 7 -19 13 2 5 6 22 9 38 4 18 22
37 54 57 50 32 72 36 103 20z m102 -222 c26 -40 35 -78 20 -78 -28 1 -86 84
-78 110 8 26 26 17 58 -32z m-33 -147 c0 -5 -9 -11 -19 -14 -14 -3 -18 -11
-14 -26 3 -13 1 -21 -7 -21 -7 0 -10 6 -7 14 3 7 0 19 -6 25 -8 8 -7 11 6 11
9 0 17 5 17 10 0 6 7 10 15 10 8 0 15 -4 15 -9z m0 -36 c0 -8 -4 -15 -10 -15
-5 0 -10 7 -10 15 0 8 5 15 10 15 6 0 10 -7 10 -15z m-79 -18 c-13 -13 -26 -3
-16 12 3 6 11 8 17 5 6 -4 6 -10 -1 -17z m119 3 c0 -5 -7 -10 -15 -10 -8 0
-15 5 -15 10 0 6 7 10 15 10 8 0 15 -4 15 -10z m-90 -35 c0 -8 -4 -15 -9 -15
-13 0 -22 16 -14 24 11 11 23 6 23 -9z m40 5 c0 -5 -4 -10 -10 -10 -5 0 -10 5
-10 10 0 6 5 10 10 10 6 0 10 -4 10 -10z m58 -11 c-2 -6 -8 -10 -13 -10 -5 0
-11 4 -13 10 -2 6 4 11 13 11 9 0 15 -5 13 -11z m-138 -19 c0 -5 -4 -10 -10
-10 -5 0 -10 5 -10 10 0 6 5 10 10 10 6 0 10 -4 10 -10z m40 -15 c0 -8 -4 -15
-10 -15 -5 0 -10 7 -10 15 0 8 5 15 10 15 6 0 10 -7 10 -15z m50 5 c0 -5 -4
-10 -10 -10 -5 0 -10 5 -10 10 0 6 5 10 10 10 6 0 10 -4 10 -10z"/>
<path d="M8015 1747 c22 -20 66 -56 98 -79 42 -30 76 -69 117 -130 98 -147
125 -242 118 -417 -3 -82 -2 -106 5 -81 5 19 7 89 5 155 -5 138 -25 212 -85
315 -47 81 -171 206 -244 244 l-54 29 40 -36z"/>
<path d="M8091 1609 c7 -13 9 -41 4 -74 -6 -50 3 -181 12 -172 2 3 8 33 13 68
6 35 17 84 26 107 18 49 14 58 -39 80 -26 11 -27 11 -16 -9z"/>
<path d="M7088 1483 c-56 -118 -72 -183 -72 -303 -1 -104 18 -225 36 -237 6
-3 8 3 5 13 -22 76 -28 117 -28 202 1 114 18 190 67 290 19 40 34 82 32 93 -2
13 -15 -6 -40 -58z"/>
<path d="M7994 1506 l-32 -11 22 -28 c26 -32 40 -35 33 -7 -3 11 -2 18 3 15 4
-3 10 6 12 20 6 28 6 27 -38 11z"/>
<path d="M8020 1307 c0 -9 -13 -23 -30 -32 -36 -18 -37 -27 -9 -65 15 -19 20
-38 17 -59 -3 -23 -2 -29 6 -21 10 10 28 180 20 189 -2 2 -4 -3 -4 -12z"/>
<path d="M7864 1132 c-35 -18 -24 -25 25 -17 24 4 41 12 41 20 0 17 -31 15
-66 -3z"/>
<path d="M7543 1003 c-27 -10 -12 -31 28 -37 23 -4 53 -13 68 -21 18 -9 32
-10 42 -4 8 5 32 14 54 20 42 12 65 26 65 40 0 16 -40 9 -90 -16 -27 -14 -56
-25 -63 -25 -8 0 -26 11 -41 25 -27 25 -39 28 -63 18z"/>
<path d="M8331 984 c0 -11 3 -14 6 -6 3 7 2 16 -1 19 -3 4 -6 -2 -5 -13z"/>
<path d="M6765 925 c-5 -2 -22 -6 -37 -9 l-28 -6 0 -180 0 -180 60 0 60 0 0
59 0 59 47 7 c52 8 93 25 112 49 18 21 31 85 20 92 -5 3 -7 10 -3 15 10 18
-27 60 -69 80 -37 16 -130 25 -162 14z m123 -130 c4 -31 -18 -55 -50 -55 -15
0 -18 8 -18 46 0 45 0 45 33 42 27 -3 32 -7 35 -33z"/>
<path d="M7445 925 c-5 -2 -22 -6 -37 -9 l-28 -6 0 -180 0 -180 55 0 55 0 0
59 0 58 50 7 c27 4 52 11 55 16 4 6 10 8 15 5 5 -3 22 9 39 26 26 26 31 38 31
81 0 41 -5 54 -28 78 -16 15 -46 33 -68 39 -36 10 -116 14 -139 6z m123 -123
c4 -28 -23 -62 -50 -62 -15 0 -18 8 -18 46 0 45 0 45 33 42 25 -2 33 -8 35
-26z"/>
<path d="M7775 925 c-5 -2 -22 -6 -37 -9 l-28 -6 0 -180 0 -180 60 0 60 0 0
59 0 59 47 7 c92 14 136 54 136 125 0 52 -25 87 -76 111 -37 16 -130 25 -162
14z m123 -130 c4 -31 -18 -55 -50 -55 -15 0 -18 8 -18 46 0 45 0 45 33 42 27
-3 32 -7 35 -33z"/>
<path d="M8534 911 c-18 -10 -39 -30 -48 -42 -18 -26 -21 -91 -6 -120 15 -26
62 -49 104 -49 26 0 38 -6 47 -21 7 -13 7 -19 1 -15 -6 3 -13 2 -17 -4 -8 -13
-54 -13 -95 1 -26 9 -34 9 -41 -2 -11 -17 -12 -90 -1 -87 4 1 20 -4 35 -10 40
-17 123 -15 158 3 41 22 69 71 69 123 0 64 -30 87 -120 94 -27 2 -35 7 -35 23
0 18 6 20 62 19 l61 -1 7 45 c4 24 4 47 0 50 -3 4 -39 8 -78 10 -58 2 -78 -1
-103 -17z"/>
<path d="M8209 773 c-1 -82 -3 -165 -5 -185 l-3 -38 114 0 115 0 0 55 0 55
-55 0 c-52 0 -55 1 -55 25 0 22 4 25 39 25 40 0 51 11 51 52 0 15 -6 19 -27
18 -47 -3 -53 -1 -53 25 0 24 3 25 60 25 l60 0 0 45 0 45 -120 0 -120 0 -1
-147z"/>
<path d="M7228 808 c-6 -109 -26 -178 -53 -178 -32 0 -45 107 -26 223 l8 47
-58 0 -58 0 -7 -34 c-9 -50 -1 -225 11 -234 6 -4 11 -14 13 -22 1 -8 16 -27
33 -42 24 -23 39 -28 79 -28 41 0 55 5 83 30 19 16 44 51 55 77 25 61 46 184
38 229 -7 34 -7 34 -60 34 l-53 0 -5 -102z"/>
<path d="M8040 735 l0 -175 55 0 c49 0 55 2 55 21 0 26 19 252 24 297 l5 32
-70 0 -69 0 0 -175z"/>
<path d="M7641 661 c-11 -7 -11 -15 -1 -45 16 -49 30 -45 30 9 0 46 -4 51 -29
36z"/>
<path d="M7976 661 c-4 -5 -28 -15 -55 -22 l-49 -12 -4 -54 c-4 -62 -2 -62 77
-30 l55 22 0 53 c0 48 -10 66 -24 43z"/>
<path d="M7653 493 c20 -2 54 -2 75 0 20 2 3 4 -38 4 -41 0 -58 -2 -37 -4z"/>
<path d="M2113 1829 c-40 -12 -133 -122 -133 -158 0 -13 -11 -39 -26 -58 -31
-41 -54 -95 -54 -128 0 -14 -4 -25 -8 -25 -20 0 -32 28 -32 75 l-1 50 -20 -25
c-28 -33 -22 -88 17 -165 35 -69 109 -142 128 -126 9 7 15 51 19 131 5 112 7
124 37 178 38 68 101 155 107 149 2 -3 -15 -41 -37 -87 -38 -73 -41 -87 -37
-138 2 -31 13 -78 23 -104 16 -40 17 -53 7 -89 l-11 -43 66 -74 c124 -137 162
-137 320 0 18 15 49 35 70 44 34 15 36 17 17 27 -40 24 -75 66 -75 91 0 37 28
47 99 38 34 -5 61 -5 61 -2 0 4 -30 40 -67 80 -44 48 -60 71 -47 68 16 -2 19
3 20 35 1 41 27 77 55 77 23 0 60 -51 41 -58 -9 -3 -8 -9 3 -25 23 -33 18 -45
-20 -53 -41 -7 -44 -22 -10 -54 34 -32 48 -17 53 59 6 78 -1 100 -43 151 -42
50 -38 66 5 25 45 -44 45 -24 0 28 -67 76 -109 90 -271 91 -98 1 -142 -3 -150
-11 -16 -16 -33 -17 -24 -3 9 15 -14 40 -34 39 -9 0 -30 -5 -48 -10z m249
-156 c23 -28 50 -92 43 -103 -4 -6 -16 4 -29 22 -12 18 -31 35 -41 37 -19 3
-19 2 -3 -15 9 -11 20 -31 23 -46 7 -27 6 -28 -37 -28 -24 0 -53 7 -64 15 -10
8 -27 15 -37 15 -14 0 -18 7 -15 32 6 62 123 114 160 71z m82 -203 c32 -49 35
-76 6 -60 -11 6 -20 17 -20 26 0 8 -7 17 -15 20 -16 6 -21 54 -6 54 4 0 20
-18 35 -40z"/>
<path d="M2630 1760 c25 -22 74 -63 110 -90 169 -128 274 -388 241 -596 -6
-38 -14 -79 -17 -91 -4 -14 -2 -23 4 -23 34 0 53 234 28 350 -30 139 -119 291
-223 377 -57 47 -123 90 -161 104 -23 8 -20 3 18 -31z"/>
<path d="M2726 1542 c1 -114 14 -239 24 -221 4 8 10 45 14 82 4 38 13 88 21
110 22 64 19 84 -15 102 -16 8 -33 15 -37 15 -4 0 -8 -39 -7 -88z"/>
<path d="M2540 1352 c0 -5 10 -17 21 -28 22 -19 22 -19 10 3 -12 24 -31 39
-31 25z"/>
<path d="M2657 1320 c-4 -19 -16 -34 -32 -42 -28 -13 -32 -42 -10 -72 22 -29
18 -76 -7 -105 l-23 -25 25 15 c49 32 59 57 61 157 2 97 -4 124 -14 72z"/>
<path d="M2488 1132 c-16 -9 -28 -19 -28 -22 0 -3 26 -3 57 0 45 4 59 9 61 23
5 23 -52 23 -90 -1z"/>
<path d="M2176 1005 c-24 -25 -20 -33 22 -41 20 -4 54 -15 76 -26 29 -15 41
-17 46 -8 4 7 32 18 61 24 43 10 55 17 57 34 5 34 -21 36 -77 8 -60 -31 -87
-33 -109 -7 -25 28 -57 35 -76 16z"/>
<path d="M2677 963 c-4 -3 -7 -11 -7 -17 0 -6 5 -5 12 2 6 6 9 14 7 17 -3 3
-9 2 -12 -2z"/>
<path d="M1402 930 c-29 -4 -56 -11 -60 -15 -4 -4 -9 -89 -11 -191 l-3 -184
66 0 66 0 0 59 0 59 50 11 c98 21 140 61 140 133 0 97 -103 150 -248 128z
m118 -115 c18 -21 -2 -65 -30 -65 -17 0 -20 7 -20 40 0 32 4 40 19 40 10 0 24
-7 31 -15z"/>
<path d="M2084 930 c-29 -4 -57 -11 -63 -14 -7 -5 -11 -68 -11 -192 l0 -184
65 0 65 0 0 59 c0 62 7 71 53 71 40 0 104 40 121 74 58 122 -56 213 -230 186z
m110 -116 c9 -8 16 -19 16 -24 0 -16 -31 -40 -51 -40 -20 0 -24 17 -13 58 7
26 26 28 48 6z"/>
<path d="M2412 930 c-29 -4 -56 -11 -60 -15 -4 -4 -9 -89 -11 -191 l-3 -184
66 0 66 0 0 59 0 59 50 11 c98 21 140 61 140 133 0 97 -103 150 -248 128z
m118 -115 c18 -21 -2 -65 -30 -65 -17 0 -20 7 -20 40 0 32 4 40 19 40 10 0 24
-7 31 -15z"/>
<path d="M3180 922 c-69 -34 -97 -110 -65 -172 19 -36 43 -50 87 -50 39 0 63
-13 54 -29 -9 -14 -64 -14 -105 0 -18 6 -34 10 -35 8 -2 -2 -7 -27 -11 -55
l-7 -52 48 -16 c65 -22 112 -20 164 7 56 27 83 75 76 131 -6 55 -39 84 -105
93 -72 11 -62 28 16 28 l61 0 4 52 c3 50 2 53 -26 63 -44 15 -117 12 -156 -8z"/>
<path d="M2846 884 c-3 -26 -6 -114 -6 -195 l0 -149 108 6 c59 3 113 7 120 10
8 2 12 23 12 59 l0 55 -55 0 c-42 0 -55 4 -55 15 0 10 14 17 40 21 39 6 40 8
40 45 0 38 -1 39 -35 39 -23 0 -35 5 -35 14 0 13 41 26 85 26 24 0 35 22 35
73 l0 27 -124 0 -123 0 -7 -46z"/>
<path d="M1860 829 c0 -101 -15 -178 -37 -186 -27 -11 -34 21 -30 139 l4 117
-54 7 c-34 4 -58 3 -65 -4 -19 -19 -22 -192 -4 -254 35 -123 153 -156 237 -68
50 52 70 115 76 238 l6 102 -67 0 -66 0 0 -91z"/>
<path d="M2703 913 c-23 -4 -23 -6 -23 -184 l0 -179 49 0 c27 0 53 6 58 13 6
6 15 80 22 162 16 214 20 195 -36 194 -27 -1 -58 -4 -70 -6z"/>
<path d="M3080 714 c0 -8 5 -12 10 -9 6 4 8 11 5 16 -9 14 -15 11 -15 -7z"/>
<path d="M2288 669 c-24 -13 -23 -51 2 -80 l19 -24 1 58 c0 31 -1 57 -2 57 -2
0 -11 -5 -20 -11z"/>
<path d="M2615 668 c-11 -7 -40 -17 -65 -24 l-45 -11 -5 -59 -5 -59 -110 -7
c-62 -4 -133 -3 -164 2 -30 6 -57 8 -59 5 -14 -13 19 -19 127 -23 131 -5 230
11 311 51 45 22 45 22 48 80 3 60 0 64 -33 45z"/>
<path d="M1965 590 c3 -5 8 -10 11 -10 2 0 4 5 4 10 0 6 -5 10 -11 10 -5 0 -7
-4 -4 -10z"/>
<path d="M8480 1360 c0 -5 9 -10 20 -10 11 0 20 5 20 10 0 6 -9 10 -20 10 -11
0 -20 -4 -20 -10z"/>
<path d="M3128 1372 c-12 -5 -14 -11 -9 -21 11 -17 41 -7 41 14 0 16 -5 17
-32 7z"/>
<path d="M6907 1309 c-3 -13 -1 -19 6 -16 15 5 22 37 9 37 -5 0 -12 -9 -15
-21z"/>
<path d="M8460 1116 c0 -12 10 -16 40 -16 22 0 40 5 40 10 0 6 -8 10 -17 10
-10 0 -28 3 -40 6 -17 5 -23 2 -23 -10z"/>
<path d="M3090 1116 c0 -26 66 -36 88 -14 22 22 13 28 -38 28 -36 0 -50 -4
-50 -14z"/>
<path d="M6880 1101 c-15 -28 -13 -33 10 -21 11 6 20 17 20 25 0 21 -17 18
-30 -4z"/>
</g>
</svg>
